<svg width="25" height="25" viewBox="0 0 25 25" fill="none" xmlns="http://www.w3.org/2000/svg">
<g clip-path="url(#clip0_66_812)">
<path d="M19.8793 19.1992C19.8003 19.2784 19.7213 19.3577 19.6423 19.437C19.3154 19.7346 19.0073 20.0564 18.6577 20.3261C17.2852 21.383 15.7312 22.0444 14.0256 22.3584C13.927 22.3723 13.8285 22.3863 13.7299 22.4003C13.5305 22.4221 13.3311 22.4501 13.1309 22.4641C12.3621 22.5177 11.6051 22.4291 10.8582 22.2589C10.4742 22.1711 10.0934 22.0599 9.72191 21.9286C8.67004 21.5563 7.70342 21.0193 6.80014 20.3727C6.2136 19.953 5.63723 19.5163 5.07649 19.0632C4.72378 18.7787 4.40783 18.4492 4.03401 18.101C5.05225 18.101 5.99854 18.1181 6.94248 18.0886C7.17788 18.0816 7.44456 17.9705 7.63538 17.8267C8.09679 17.4793 8.21645 16.9415 8.0444 16.4526C7.86139 15.9312 7.39451 15.618 6.78059 15.6164C4.95684 15.6117 3.13308 15.6094 1.30933 15.6195C0.998849 15.6211 0.692283 15.6747 0.442025 15.9141C0.0971381 16.242 -0.0100037 16.6073 0.000163069 17.0954C0.04083 18.8968 0.0204965 20.6991 0.0197145 22.5014C0.0197145 22.9653 0.223831 23.3267 0.621116 23.5366C1.17872 23.8303 1.65265 23.7091 2.02882 23.406C2.36823 23.1332 2.49336 22.7446 2.50118 22.3249C2.51291 21.7149 2.50744 21.104 2.509 20.4939C2.58251 20.431 2.65681 20.3688 2.73032 20.3059C3.11509 20.6369 3.49987 20.9688 3.88464 21.2999C3.90732 21.3162 3.93 21.3325 3.95268 21.348C4.33588 21.6457 4.70502 21.962 5.10386 22.2371C6.1135 22.9327 7.16224 23.5591 8.29935 24.0378C9.11581 24.3821 9.95183 24.6463 10.8254 24.7893C11.2469 24.8585 11.6716 24.9471 12.0962 24.9533C12.4442 24.9588 12.8353 25.1072 13.0918 24.8422C13.9286 24.9083 14.6872 24.7505 15.4419 24.5593L15.549 24.5103C15.8618 24.4396 16.1856 24.4 16.4843 24.292C17.6301 23.8777 18.7187 23.35 19.7103 22.6366C20.8693 21.8019 21.8735 20.818 22.6954 19.6499C23.587 18.3824 24.2416 17.0122 24.5888 15.4991C24.6506 15.2278 24.7859 14.9729 24.8367 14.7009C24.8821 14.4592 24.8234 14.1973 24.8711 13.9564C24.9446 13.5826 24.8555 13.2756 24.6146 12.9942C24.3065 12.6336 23.9092 12.5264 23.4517 12.5722C23.0568 12.6127 22.7533 12.786 22.5734 13.1481C22.5578 13.1691 22.5429 13.1901 22.5273 13.2118C22.4655 13.3074 22.3623 13.3984 22.3498 13.5002C22.295 13.9377 22.3412 14.4009 22.2145 14.8144C21.9736 15.5993 21.6404 16.3555 21.3448 17.1241C21.3292 17.1389 21.3135 17.1544 21.2987 17.1692C21.1783 17.3145 21.0555 17.4568 20.9405 17.606C20.9108 17.6448 20.9069 17.7031 20.8912 17.7521L20.8897 17.8687C20.5534 18.3124 20.2171 18.7562 19.8808 19.1999L19.8793 19.1992ZM2.5481 11.0746C2.78585 10.3153 2.8531 9.50786 3.24804 8.79208C3.54522 8.25428 3.75325 7.66441 4.08093 7.14759C4.94823 5.7821 6.10568 4.70339 7.51885 3.90058C7.5603 3.86249 7.60175 3.82441 7.64398 3.78555C7.89268 3.66354 8.14059 3.54075 8.38928 3.41873C8.45498 3.38609 8.52067 3.35267 8.58792 3.32392C8.68568 3.28195 8.785 3.24387 8.88432 3.20423C8.97426 3.22288 9.07436 3.25786 9.04934 3.09854C9.2081 3.07522 9.37155 3.06823 9.52483 3.02626C10.3413 2.80399 11.1687 2.64311 12.0165 2.62524C12.7422 2.61047 13.457 2.63923 14.1765 2.83352C14.8311 3.00994 15.4919 3.15916 16.0847 3.48246C16.934 3.94487 17.7544 4.45936 18.5873 4.95131C18.6084 4.9653 18.6295 4.98006 18.6506 4.99405C19.4006 5.61113 20.1498 6.2282 20.8998 6.8445C20.8826 6.8717 20.8662 6.89967 20.849 6.92688C19.9457 6.92688 19.0425 6.92454 18.1384 6.92688C17.2727 6.92998 16.6713 7.69006 16.8996 8.51386C17.0263 8.96928 17.5902 9.42936 18.0187 9.42781C19.9215 9.42081 21.8242 9.4177 23.727 9.41226C24.3753 9.41071 24.9681 8.8799 24.9736 8.20066C24.9869 6.36809 24.9775 4.5363 24.9994 2.70373C25.0033 2.3952 24.9446 2.12552 24.8062 1.86206C24.7655 1.82786 24.7241 1.79367 24.6834 1.7587C24.1876 1.29395 23.5354 1.24965 22.9848 1.58461C22.9621 1.60015 22.9387 1.6157 22.916 1.63202C22.88 1.66854 22.844 1.70507 22.8073 1.7416C22.7338 1.78201 22.6595 1.8232 22.586 1.86361C22.5422 2.03848 22.4976 2.21256 22.4538 2.38743C22.4686 2.44805 22.4835 2.50866 22.4976 2.56851C22.4937 3.2835 22.4905 3.9985 22.4866 4.7135C22.4178 4.73526 22.3482 4.75702 22.2794 4.77878C21.9486 4.48656 21.6295 4.17958 21.2846 3.90524C20.7278 3.46147 20.1538 3.03869 19.5875 2.60736C19.5649 2.59182 19.5422 2.57628 19.5195 2.56073C19.4835 2.53742 19.4476 2.51333 19.4124 2.49001C19.3913 2.47602 19.3694 2.46203 19.3482 2.44727C18.5271 1.89392 16.6447 0.87039 15.377 0.55175C15.1736 0.500457 14.9891 0.357458 14.7857 0.330257C14.2007 0.251763 13.5939 0.305387 13.0503 0.00617709C13.0277 -0.00625763 12.9839 -0.00858914 12.9651 0.00462275C12.6374 0.234665 12.2691 0.0823397 11.921 0.111872C11.6387 0.135964 11.3533 0.116535 11.0952 0.116535C10.6565 0.287513 10.206 0.319377 9.75319 0.344246C9.69219 0.364452 9.63041 0.385436 9.56941 0.405642C9.00163 0.594495 8.42526 0.761586 7.86687 0.976085C6.59994 1.46337 5.45892 2.16593 4.42191 3.03636C4.40079 3.05191 4.3789 3.06667 4.35778 3.08222C3.86352 3.58504 3.35049 4.07155 2.87969 4.59537C2.17584 5.37798 1.60885 6.26473 1.1842 7.22065C0.847912 7.97683 0.586705 8.77032 0.351306 9.56381C0.191767 10.1024 0.0869713 10.6682 0.0455223 11.2277C0.00954774 11.7096 0.280139 12.0927 0.707924 12.343C1.15526 12.6049 1.60338 12.5847 2.02256 12.2979C2.43783 12.015 2.62553 11.5122 2.50196 11.1119C2.51682 11.0972 2.53246 11.0832 2.54732 11.0684L2.5481 11.0746Z" fill="white"/>
<path d="M7.51872 3.90058C6.10554 4.70418 4.9481 5.78211 4.08079 7.1476C3.75311 7.66442 3.5443 8.25429 3.2479 8.79209C2.85297 9.50786 2.78571 10.3153 2.54796 11.0746C2.53311 11.0894 2.51746 11.1034 2.5026 11.1182C2.62539 11.5184 2.43769 12.0205 2.0232 12.3041C1.60324 12.5909 1.1559 12.6111 0.708568 12.3492C0.280783 12.0982 0.0101911 11.7158 0.0461657 11.234C0.0876147 10.6736 0.19241 10.1086 0.35195 9.57004C0.587349 8.77577 0.848556 7.98228 1.18484 7.22687C1.61028 6.27095 2.17649 5.38498 2.88034 4.60159C3.35114 4.07778 3.86417 3.59127 4.35842 3.08844C4.37954 3.0729 4.40144 3.05813 4.42255 3.04259C5.45956 2.17216 6.60136 1.47037 7.86751 0.982311C8.42512 0.767812 9.00149 0.60072 9.57005 0.411868C9.63105 0.391662 9.69283 0.370678 9.75383 0.350472C10.2059 0.325602 10.6571 0.292961 11.0958 0.122761C11.3539 0.122761 11.6402 0.141413 11.9217 0.118098C12.2697 0.0885653 12.6381 0.241668 12.9657 0.0108483C12.9853 -0.00236355 13.0291 -3.20408e-05 13.051 0.0124027C13.5945 0.311613 14.2014 0.257988 14.7864 0.336482C14.9897 0.363683 15.1743 0.50746 15.3776 0.557976C16.6453 0.875838 18.5277 1.90015 19.3489 2.45349C19.37 2.46748 19.3919 2.48147 19.413 2.49624C19.449 2.51955 19.485 2.54364 19.5202 2.56696C19.5428 2.5825 19.5655 2.59805 19.5882 2.61359C20.1552 3.04492 20.7284 3.4677 21.2853 3.91146C21.6301 4.18658 21.9492 4.49279 22.28 4.785C22.3371 4.84407 22.3942 4.90313 22.5037 5.01738C22.4951 4.86117 22.4912 4.79044 22.4881 4.71972C22.492 4.00472 22.4951 3.28973 22.499 2.57473C22.4841 2.51411 22.4693 2.45349 22.4552 2.39365C22.499 2.21879 22.5436 2.0447 22.5874 1.86984C22.6609 1.82943 22.7352 1.78824 22.8087 1.74782C22.8447 1.7113 22.8806 1.67477 22.9174 1.63824C22.9401 1.6227 22.9635 1.60716 22.9862 1.59083C23.5368 1.25587 24.189 1.30017 24.6849 1.76492C24.7255 1.79912 24.767 1.83331 24.8076 1.86828C24.9468 2.13174 25.0047 2.40142 25.0008 2.70996C24.9781 4.54175 24.9883 6.37431 24.975 8.20688C24.9703 8.88613 24.3767 9.41693 23.7284 9.41849C21.8257 9.42393 19.9229 9.42626 18.0202 9.43403C17.5924 9.43559 17.0277 8.9755 16.901 8.52008C16.6727 7.69706 17.2741 6.93621 18.1398 6.9331C19.0431 6.92999 19.9464 6.9331 20.8504 6.9331C20.8676 6.9059 20.8841 6.87792 20.9013 6.85072C20.1513 6.23365 19.4021 5.61657 18.6521 5.00028C18.631 4.98629 18.6098 4.97152 18.5887 4.95753C17.7558 4.46559 16.9347 3.95188 16.0861 3.48868C15.4933 3.16538 14.8325 3.01616 14.1779 2.83975C13.4577 2.64623 12.7436 2.6167 12.0179 2.63147C11.1701 2.64856 10.3427 2.80944 9.52625 3.03248C9.37297 3.07445 9.20952 3.08145 9.05076 3.10476C8.99602 3.13973 8.94128 3.17471 8.88575 3.21046C8.78721 3.25009 8.68711 3.28817 8.58935 3.33014C8.52209 3.3589 8.4564 3.39231 8.39071 3.42496C8.14201 3.54697 7.8941 3.66899 7.64541 3.79178C7.60865 3.78168 7.57111 3.77235 7.53436 3.76225C7.52966 3.81043 7.52497 3.85862 7.52028 3.90602L7.51872 3.90058Z" fill="white"/>
<path d="M21.3456 17.1234C21.6404 16.3548 21.9744 15.5986 22.2153 14.8136C22.342 14.401 22.2958 13.9378 22.3506 13.4995C22.3631 13.3976 22.4663 13.3067 22.5281 13.2111C22.5437 13.1901 22.5586 13.1692 22.5742 13.1474C22.7541 12.7852 23.0575 12.6111 23.4525 12.5715C23.91 12.5249 24.3073 12.6329 24.6154 12.9935C24.8563 13.2748 24.9454 13.5818 24.8719 13.9557C24.8242 14.1966 24.8829 14.4585 24.8375 14.7002C24.7867 14.9722 24.6514 15.2279 24.5896 15.4983C24.2423 17.0107 23.5885 18.3809 22.6962 19.6492C21.8743 20.8173 20.8701 21.8012 19.7111 22.6359C18.7195 23.3501 17.6308 23.8778 16.4851 24.2912C16.1864 24.3993 15.8618 24.4389 15.5498 24.5096C15.5138 24.5259 15.4786 24.5423 15.4426 24.5586C14.688 24.7498 13.9294 24.9075 13.0926 24.8415C12.8368 25.1073 12.445 24.958 12.097 24.9526C11.6724 24.9464 11.2477 24.8578 10.8262 24.7886C9.95261 24.6456 9.11738 24.3806 8.30013 24.0371C7.16302 23.5584 6.11428 22.932 5.10464 22.2364C4.7058 21.9613 4.33667 21.645 3.95346 21.3473C3.93078 21.331 3.9081 21.3147 3.88542 21.2991C3.50065 20.9681 3.11587 20.6362 2.7311 20.3051C2.66463 20.2352 2.59815 20.1652 2.48319 20.0448C2.49492 20.2414 2.50274 20.3673 2.51056 20.4932C2.509 21.1033 2.51447 21.7141 2.50274 22.3242C2.49492 22.7447 2.36979 23.1325 2.03038 23.4053C1.65421 23.7076 1.1795 23.8296 0.622679 23.5358C0.225394 23.326 0.0212777 22.9646 0.0212777 22.5006C0.0212777 20.6984 0.0423932 18.8953 0.00172631 17.0946C-0.00922248 16.6074 0.0979192 16.2413 0.443588 15.9118C0.693846 15.6732 1.00041 15.6196 1.31089 15.6172C3.13464 15.6071 4.9584 15.6095 6.78216 15.6141C7.39529 15.6157 7.86296 15.9289 8.04596 16.4504C8.21801 16.94 8.09836 17.4778 7.63694 17.8244C7.44612 17.9682 7.18022 18.0793 6.94404 18.0863C5.99932 18.1158 5.05381 18.0987 4.03557 18.0987C4.4094 18.4469 4.72535 18.7764 5.07805 19.0609C5.63879 19.514 6.21516 19.95 6.80171 20.3704C7.70498 21.017 8.6716 21.554 9.72347 21.9263C10.0949 22.0576 10.4758 22.1696 10.8598 22.2566C11.6067 22.4268 12.3645 22.5154 13.1325 22.4618C13.3327 22.4478 13.5321 22.4198 13.7315 22.398C13.8566 22.569 13.9591 22.5807 14.0271 22.3561C15.7328 22.0429 17.286 21.3807 18.6592 20.3238C19.0088 20.0549 19.317 19.7324 19.6439 19.4347C19.819 19.4502 19.8972 19.371 19.8808 19.1969C20.2171 18.7531 20.5534 18.3094 20.8897 17.8656C20.9178 17.8462 20.946 17.8275 20.9741 17.8081C20.9468 17.7887 20.9194 17.7684 20.892 17.749C20.9077 17.7001 20.9116 17.6418 20.9413 17.6029C21.0562 17.4537 21.1798 17.3115 21.2995 17.1661C21.3151 17.1514 21.3308 17.1358 21.3456 17.1211V17.1234Z" fill="white"/>
<path d="M2.50979 20.494C2.50197 20.3681 2.49493 20.2422 2.48242 20.0455C2.59738 20.166 2.66386 20.2359 2.73033 20.3059L2.50901 20.494H2.50979Z" fill="#AAAAAA"/>
<path d="M22.4878 4.71814C22.4917 4.78886 22.4956 4.85881 22.5035 5.0158C22.394 4.90233 22.3369 4.84326 22.2798 4.78342C22.3486 4.76166 22.4182 4.7399 22.487 4.71814H22.4878Z" fill="#FEFEFE"/>
<path d="M14.0261 22.3577C13.958 22.5823 13.8556 22.5706 13.7305 22.3996C13.829 22.3856 13.9275 22.3717 14.0261 22.3577Z" fill="white"/>
<path d="M19.8791 19.1992C19.8955 19.3725 19.8173 19.4518 19.6421 19.437C19.7211 19.3578 19.8001 19.2785 19.8791 19.1992Z" fill="#010101"/>
<path d="M7.51855 3.90061C7.52325 3.85243 7.52794 3.80424 7.53263 3.75684C7.56939 3.76694 7.60693 3.77627 7.64368 3.78637C7.60223 3.82445 7.56079 3.86253 7.51855 3.90139V3.90061Z" fill="#F7F7F7"/>
<path d="M22.4546 2.39136C22.4694 2.45198 22.4843 2.5126 22.4984 2.57244C22.4835 2.51182 22.4687 2.4512 22.4546 2.39136Z" fill="#ABABAB"/>
<path d="M8.88428 3.20579C8.93902 3.17082 8.99377 3.13585 9.04929 3.1001C9.07432 3.25864 8.97421 3.22444 8.88428 3.20579Z" fill="#FDFDFD"/>
<path d="M24.8059 1.8652C24.7652 1.83101 24.7238 1.79681 24.6831 1.76184C24.7238 1.79604 24.7652 1.83023 24.8059 1.8652Z" fill="white"/>
<path d="M20.8905 17.7513C20.9179 17.7708 20.9453 17.791 20.9726 17.8104C20.9445 17.8298 20.9163 17.8485 20.8882 17.8679L20.8897 17.7513H20.8905Z" fill="white"/>
<path d="M19.4128 2.49392C19.3916 2.47993 19.3697 2.46594 19.3486 2.45117C19.3697 2.46516 19.3916 2.47915 19.4128 2.49392Z" fill="#FCFCFC"/>
<path d="M22.5735 13.1489C22.5578 13.1699 22.543 13.1909 22.5273 13.2127C22.543 13.1917 22.5578 13.1707 22.5735 13.1489Z" fill="white"/>
<path d="M21.3455 17.1234C21.3298 17.1382 21.3142 17.1537 21.2993 17.1685C21.315 17.1537 21.3306 17.1382 21.3455 17.1234Z" fill="white"/>
<path d="M22.9848 1.5885C22.9622 1.60404 22.9387 1.61959 22.916 1.63591C22.9387 1.62036 22.9622 1.60482 22.9848 1.5885Z" fill="white"/>
<path d="M3.88428 21.2999C3.90696 21.3162 3.92964 21.3326 3.95232 21.3481C3.92964 21.3318 3.90696 21.3155 3.88428 21.2999Z" fill="white"/>
</g>
<defs>
<clipPath id="clip0_66_812">
<rect width="25" height="25" fill="white"/>
</clipPath>
</defs>
</svg>
