<svg width="24" height="24" viewBox="0 0 24 24" fill="none" xmlns="http://www.w3.org/2000/svg">
<g clip-path="url(#clip0_66_837)">
<path d="M7.76025 19.7935C7.03361 19.4909 6.26855 19.307 5.56279 18.9166C5.06249 18.6399 4.56303 18.3699 4.10032 18.0364C3.77041 17.799 3.46054 17.5348 3.14233 17.2824C2.99533 17.1344 2.84749 16.9873 2.70049 16.8393C2.07659 16.1062 1.49695 15.343 1.07015 14.4744C1.05344 14.4519 1.03674 14.4293 1.02087 14.4059C0.912292 14.1359 0.804549 13.8659 0.695971 13.5958C0.679266 13.5741 0.662562 13.5515 0.645858 13.5298C0.496354 13.0876 0.34685 12.6454 0.197345 12.2023C0.197345 12.1831 0.197345 12.1647 0.19484 12.1455C0.133869 11.465 0.0545231 10.7854 0.0152678 10.1033C-0.0582314 8.84266 0.188993 7.63054 0.632494 6.4552C1.00333 5.47212 1.4911 4.55676 2.17347 3.75091C2.35722 3.5344 2.52593 3.30535 2.70133 3.08215C2.84833 2.93419 2.99616 2.78707 3.14316 2.6391C4.30829 1.6042 5.61624 0.820086 7.11462 0.367839C7.12966 0.363659 7.13801 0.336909 7.1497 0.32019C7.209 0.297619 7.2683 0.275049 7.3276 0.252478L7.76359 0.143805C7.77445 0.168884 7.78447 0.193126 7.79533 0.218205C7.80535 0.193126 7.81621 0.168048 7.82623 0.14297C7.88971 0.148821 7.9607 0.175571 8.01499 0.156345C8.44095 0.0067104 8.88612 0.0108901 9.33046 0.00921824C9.82908 0.00754634 10.3285 -0.0141882 10.8247 0.0167417C11.1947 0.0393123 11.5722 -0.00499284 11.9363 0.145477C12.171 0.241611 12.4366 0.26251 12.688 0.316846L12.7699 0.32019C13.3061 0.537536 13.8532 0.731475 14.3768 0.976407C15.3081 1.41277 16.1341 2.01047 16.8892 2.70849C17.0353 2.85478 17.1807 3.00023 17.3268 3.14652C17.6818 3.58372 18.0359 4.02176 18.3909 4.45896C18.4502 4.51998 18.5103 4.58101 18.5696 4.64203C18.5947 4.74987 18.593 4.87275 18.6482 4.9622C19.0658 5.64349 19.3606 6.37578 19.5836 7.13984C19.6045 7.19835 19.6254 7.25687 19.6462 7.31538C19.688 7.44496 19.7289 7.57453 19.7707 7.7041C19.7707 7.72834 19.7707 7.75342 19.7707 7.77766C19.7707 7.81946 19.7548 7.86878 19.7724 7.90138C19.9795 8.30013 19.9302 8.73649 19.9511 9.15864C19.9745 9.62761 19.9728 10.0991 19.9519 10.5689C19.9285 11.093 19.9686 11.6473 19.8099 12.1321C19.4324 13.2857 19.0958 14.4702 18.3141 15.47C18.3926 15.5536 18.4661 15.6372 18.5446 15.7158C20.1657 17.3392 21.7877 18.9609 23.4072 20.5852C23.9643 21.1436 24.1347 21.8299 23.8967 22.5605C23.4264 24.0075 21.6917 24.5125 20.5725 23.3856C18.9856 21.7873 17.3903 20.1973 15.7984 18.604C15.4969 18.3022 15.5094 18.3206 15.1369 18.5664C14.4812 18.9986 13.7663 19.312 13.0146 19.5403C12.9227 19.5678 12.8384 19.6222 12.7507 19.6648C12.7331 19.6648 12.7148 19.6648 12.6972 19.6665C12.2462 19.7492 11.7985 19.8755 11.3442 19.9056C10.5298 19.9599 9.71132 19.9758 8.89531 19.9666C8.53867 19.9624 8.18287 19.8554 7.82623 19.7952C7.81203 19.7701 7.79783 19.7442 7.78363 19.7191C7.77612 19.7442 7.7686 19.7693 7.76108 19.7944L7.76025 19.7935ZM5.1978 4.88027C4.92635 5.17536 4.62651 5.44955 4.38931 5.77056C3.67686 6.7344 3.15903 7.79187 3.0847 9.00901C3.04043 9.74297 3.01203 10.4895 3.09388 11.2176C3.15318 11.7459 3.36366 12.2709 3.57831 12.7658C4.16881 14.1233 5.11093 15.19 6.37044 15.9708C7.20733 16.4899 8.11939 16.8636 9.08908 16.953C10.1765 17.0542 11.2698 17.0057 12.323 16.5827C13.1198 16.2633 13.8607 15.8638 14.508 15.312C15.5445 14.4293 16.277 13.3308 16.6762 12.0218C16.8015 11.6096 16.956 11.195 16.9994 10.772C17.0454 10.3256 16.9727 9.86836 16.9543 9.41528C16.9468 9.23053 16.9852 9.03325 16.9326 8.86355C16.7246 8.18393 16.4891 7.51267 16.2636 6.83889C16.2469 6.81632 16.2302 6.79375 16.2143 6.77118C15.7408 5.77474 15.0166 4.9831 14.1447 4.33524C13.3286 3.72918 12.4183 3.29866 11.4018 3.14234C10.9792 3.07714 10.5507 3.04203 10.1239 3.01193C9.7773 2.98769 9.41565 2.92918 9.0849 2.9994C8.48104 3.1273 7.88303 3.3087 7.30338 3.5227C6.52997 3.80859 5.82672 4.22489 5.25042 4.83095C5.23371 4.84767 5.21617 4.86523 5.19947 4.88195L5.1978 4.88027Z" fill="white"/>
<path d="M17.3258 3.14571C17.1797 2.99942 17.0343 2.85396 16.8882 2.70767C17.1847 2.59064 17.325 2.73108 17.3258 3.14571Z" fill="white"/>
<path d="M2.69849 16.8401C2.84548 16.9881 2.99332 17.1352 3.14032 17.2831C2.73357 17.2815 2.70016 17.248 2.69849 16.8401Z" fill="white"/>
<path d="M3.14129 2.64075C2.9943 2.78871 2.84646 2.93584 2.69946 3.0838C2.71784 2.71765 2.7763 2.65914 3.14129 2.64075Z" fill="white"/>
<path d="M7.76001 19.7935C7.76753 19.7684 7.77504 19.7433 7.78256 19.7183C7.79676 19.7433 7.81096 19.7693 7.82516 19.7943C7.81764 19.8085 7.80929 19.8236 7.80177 19.8378C7.78757 19.8228 7.77421 19.8077 7.76001 19.7935Z" fill="white"/>
<path d="M7.82338 0.144653C7.81336 0.169732 7.8025 0.19481 7.79248 0.219888C7.78162 0.19481 7.7716 0.170568 7.76074 0.145489C7.78162 0.145489 7.8025 0.145489 7.82338 0.145489V0.144653Z" fill="white"/>
<path d="M12.7696 0.319318C12.742 0.318482 12.7153 0.317647 12.6877 0.315975C12.6994 0.281701 12.7111 0.247427 12.7237 0.213989C12.7387 0.249099 12.7546 0.284209 12.7696 0.319318Z" fill="white"/>
<path d="M19.7695 7.77681C19.7695 7.75257 19.7695 7.72749 19.7695 7.70325C19.7854 7.71161 19.8004 7.7208 19.8163 7.72916C19.8004 7.74504 19.7854 7.76093 19.7695 7.77681Z" fill="white"/>
<path d="M0.19291 12.1462C0.19458 12.1655 0.195415 12.1839 0.195415 12.2031C0.179546 12.1997 0.162842 12.1972 0.146973 12.1939C0.162007 12.178 0.177876 12.1621 0.19291 12.1462Z" fill="white"/>
<path d="M1.01807 14.4067C1.03477 14.4293 1.05148 14.4519 1.06734 14.4753C1.05064 14.4527 1.03394 14.4301 1.01807 14.4067Z" fill="white"/>
<path d="M12.696 19.6665C12.7136 19.6656 12.732 19.6648 12.7495 19.6648C12.747 19.6807 12.7445 19.6966 12.742 19.7116C12.7269 19.6966 12.7111 19.6815 12.696 19.6665Z" fill="white"/>
<path d="M16.2634 6.83798C16.2467 6.81541 16.23 6.79283 16.2141 6.77026C16.2308 6.79283 16.2475 6.81541 16.2634 6.83798Z" fill="white"/>
</g>
<defs>
<clipPath id="clip0_66_837">
<rect width="24" height="24" fill="white"/>
</clipPath>
</defs>
</svg>
