<svg width="36" height="18" viewBox="0 0 36 18" fill="none" xmlns="http://www.w3.org/2000/svg">
<g clip-path="url(#clip0_66_857)">
<path d="M35.9998 5.16017C36.0018 6.7327 35.0714 8.23546 33.6884 8.83702C30.0417 10.4233 26.39 11.9958 22.7423 13.5775C21.8311 13.972 20.8977 14.2614 19.9266 14.3803C19.3554 14.4501 18.7953 14.3586 18.2453 14.179C16.5184 13.6175 14.7884 13.0651 13.0635 12.4921C12.4364 12.284 11.8419 12.3446 11.2605 12.6523C10.7917 12.9004 10.3341 13.1749 9.86124 13.4105C9.63599 13.5226 9.637 13.6541 9.72427 13.8725C9.87951 14.2602 10.054 14.6491 10.0195 15.094C9.95967 15.8579 9.61062 16.4012 8.98763 16.7008C8.18706 17.0862 7.38345 17.4625 6.57477 17.825C5.59664 18.2642 4.76158 17.8639 4.35166 16.758C3.17567 13.5832 2.00578 10.405 0.833848 7.2279C0.606565 6.61033 0.376238 5.99504 0.153014 5.37518C-0.225453 4.32645 0.11953 3.37149 1.04997 2.92089C1.84952 2.53434 2.65313 2.15693 3.46079 1.7921C4.4095 1.36438 5.31051 1.81498 5.67883 2.88429C5.79856 3.2312 6.00352 3.32765 6.29371 3.17364C7.87962 2.32848 9.45843 1.46273 11.0535 0.640442C12.8139 -0.267621 14.5997 -0.245891 16.2292 0.924069C17.5442 1.86758 18.9972 2.23584 20.4472 2.6853C21.0773 2.88086 21.7084 3.07414 22.3375 3.27428C22.9889 3.48128 23.485 3.93417 23.8381 4.5689C23.967 4.80106 24.0664 4.82394 24.2886 4.7496C26.4965 4.01194 28.7044 3.27543 30.9204 2.57322C32.0345 2.21983 33.172 2.04485 34.3074 2.48058C35.4113 2.90488 36.0008 3.85068 36.0028 5.15903L35.9998 5.16017ZM21.5227 9.35281C21.3461 9.35053 21.1716 9.34481 20.9971 9.2922C19.189 8.74668 17.3788 8.20687 15.5697 7.66363C15.1943 7.55041 14.8148 7.44634 14.4465 7.3091C14.1756 7.20846 14.0366 6.97172 14.1005 6.64349C14.1664 6.29925 14.3744 6.14486 14.6869 6.18717C14.7864 6.2009 14.8848 6.22835 14.9812 6.25808C17.0227 6.86765 19.0621 7.48751 21.1067 8.08335C22.0097 8.3464 22.9097 7.74369 23.1512 6.76243C23.4018 5.74572 22.9087 4.70614 21.9975 4.40193C21.1422 4.11716 20.2747 3.88156 19.4132 3.61852C18.2271 3.25598 17.046 2.93919 15.9867 2.13634C14.5733 1.06474 13.0097 0.94008 11.4431 1.74864C9.77906 2.60753 8.1343 3.51674 6.47635 4.39278C6.27139 4.50142 6.30995 4.62037 6.37387 4.79306C7.283 7.2462 8.19213 9.70048 9.09112 12.1582C9.17635 12.3904 9.2626 12.4327 9.45538 12.3206C9.84805 12.0919 10.2509 11.886 10.6446 11.6596C11.5395 11.1438 12.4649 11.0328 13.4318 11.3554C14.6616 11.7648 15.9106 12.1113 17.1191 12.5894C18.7233 13.2241 20.2848 13.3648 21.9052 12.65C25.7437 10.9574 29.6014 9.3185 33.4459 7.64305C34.1765 7.32511 34.63 6.6698 34.8472 5.8395C35.18 4.57004 34.7366 3.75919 33.5748 3.50187C32.8696 3.34633 32.1573 3.43554 31.4734 3.65398C29.1478 4.39735 26.8293 5.17161 24.5048 5.9207C24.2765 5.9939 24.2968 6.14943 24.2815 6.33585C24.1385 8.10394 22.998 9.3471 21.5217 9.35396L21.5227 9.35281ZM8.96632 14.9624C8.93892 14.8767 8.90442 14.7554 8.86079 14.6388C7.47477 10.883 6.08875 7.1284 4.70172 3.37264C4.50386 2.83626 4.24614 2.71618 3.77128 2.9369C3.04783 3.27428 2.32539 3.61395 1.60397 3.95476C1.03272 4.22466 0.951548 4.43738 1.18492 5.07211C2.1042 7.56757 3.02449 10.063 3.94478 12.5573C4.40544 13.8051 4.86406 15.0528 5.32979 16.2971C5.49213 16.7317 5.74681 16.9044 6.06034 16.7637C6.9157 16.3794 7.76496 15.9769 8.61423 15.5743C8.83238 15.4714 8.93283 15.2609 8.96429 14.9613L8.96632 14.9624Z" fill="white"/>
</g>
<defs>
<clipPath id="clip0_66_857">
<rect width="36" height="18" fill="white"/>
</clipPath>
</defs>
</svg>
