<svg width="24" height="26" viewBox="0 0 24 26" fill="none" xmlns="http://www.w3.org/2000/svg">
<g clip-path="url(#clip0_66_1159)">
<path d="M20 23.5625C20.55 23.5625 21 23.1969 21 22.75V8.125H16C14.8938 8.125 14 7.39883 14 6.5V2.4375H4C3.45 2.4375 3 2.80312 3 3.25V22.75C3 23.1969 3.45 23.5625 4 23.5625H20ZM0 3.25C0 1.45742 1.79375 0 4 0H14.3438C15.4062 0 16.425 0.340234 17.175 0.949609L22.8312 5.54531C23.5812 6.15469 24 6.98242 24 7.8457V22.75C24 24.5426 22.2062 26 20 26H4C1.79375 26 0 24.5426 0 22.75V3.25Z" fill="white"/>
</g>
<defs>
<clipPath id="clip0_66_1159">
<rect width="24" height="26" fill="white"/>
</clipPath>
</defs>
</svg>
