<svg width="8" height="18" viewBox="0 0 8 18" fill="none" xmlns="http://www.w3.org/2000/svg">
<path d="M0.00293176 8.47532C0.0175478 8.29982 0.085199 8.13374 0.196282 8.00104L6.58212 0.30731C6.71868 0.13224 6.91746 0.0224362 7.13308 0.00300221C7.3487 -0.0162887 7.56266 0.0562344 7.7258 0.204329C7.88908 0.352421 7.98764 0.563173 7.99891 0.788412C8.01019 1.01365 7.93335 1.234 7.7858 1.3989L1.85502 8.54679L7.7858 15.6947C7.93335 15.8596 8.01019 16.0799 7.99891 16.3052C7.98764 16.5304 7.88909 16.7412 7.7258 16.8892C7.56266 17.0373 7.34871 17.1099 7.13308 17.0906C6.91746 17.0711 6.71868 16.9613 6.58212 16.7863L0.196282 9.09254C0.0541574 8.92254 -0.0155814 8.69986 0.00293176 8.47532Z" fill="#3C3C3C"/>
</svg>
