<svg width="30" height="34" viewBox="0 0 30 34" fill="none" xmlns="http://www.w3.org/2000/svg">
<g clip-path="url(#clip0_96_54)">
<path d="M20 31.5625C20.55 31.5625 21 31.1969 21 30.75V16.125H16C14.8937 16.125 14 15.3988 14 14.5V10.4375H4C3.45 10.4375 3 10.8031 3 11.25V30.75C3 31.1969 3.45 31.5625 4 31.5625H20ZM0 11.25C0 9.45742 1.79375 8 4 8H14.3438C15.4062 8 16.425 8.34023 17.175 8.94961L22.8312 13.5453C23.5812 14.1547 24 14.9824 24 15.8457V30.75C24 32.5426 22.2062 34 20 34H4C1.79375 34 0 32.5426 0 30.75V11.25Z" fill="white"/>
</g>
<path d="M18.2501 7.89847C21.902 6.47714 22.4651 5.65021 22.7138 1.36087C24.1037 5.42636 24.8678 6.06999 28.7673 6.46176C25.1155 7.88309 24.5523 8.71002 24.3036 12.9994C22.9137 8.93387 22.1496 8.29024 18.2501 7.89847Z" fill="white"/>
<defs>
<clipPath id="clip0_96_54">
<rect width="24" height="26" fill="white" transform="translate(0 8)"/>
</clipPath>
</defs>
</svg>
